# MagicaVoxel @ Ephtracy

# group
g fetal-char-crouch-pull

# material
mtllib fetal-char-crouch-pull.mtl
usemtl palette

# normals
vn -1 0 0
vn 1 0 0
vn 0 0 1
vn 0 0 -1
vn 0 -1 0
vn 0 1 0

# texcoords
vt 0.248047 0.5
vt 0.279297 0.5
vt 0.744141 0.5
vt 0.994141 0.5

# verts
v 1 20 3
v 1 20 -0
v 1 21 3
v 1 21 -0
v 2 11 4
v 2 11 -1
v 2 12 4
v 2 12 -1
v 2 14 5
v 2 14 4
v 2 14 -1
v 2 14 -2
v 2 20 5
v 2 20 3
v 2 20 -0
v 2 20 -2
v 2 21 2
v 2 21 1
v 2 22 2
v 2 22 1
v 3 21 3
v 3 21 2
v 3 21 1
v 3 21 -0
v 3 22 2
v 3 22 1
v 3 24 3
v 3 24 -0
v 4 20 2
v 4 20 1
v 4 21 4
v 4 21 3
v 4 21 2
v 4 21 1
v 4 21 -0
v 4 21 -1
v 4 22 4
v 4 22 3
v 4 22 -0
v 4 22 -1
v 4 24 4
v 4 24 3
v 4 24 -0
v 4 24 -1
v 4 25 3
v 4 25 -0
v 6 11 4
v 6 11 3
v 6 11 -0
v 6 11 -1
v 6 12 4
v 6 12 3
v 6 12 -0
v 6 12 -1
v 3 15 5
v 3 15 4
v 3 15 -1
v 3 15 -2
v 3 20 5
v 3 20 4
v 3 20 2
v 3 20 1
v 3 20 -1
v 3 20 -2
v 3 21 2
v 3 21 1
v 4 11 3
v 4 11 -0
v 4 12 3
v 4 12 -0
v 4 19 4
v 4 19 3
v 4 19 -0
v 4 19 -1
v 4 20 4
v 4 20 3
v 4 20 -0
v 4 20 -1
v 5 11 4
v 5 11 3
v 5 11 -0
v 5 11 -1
v 5 12 4
v 5 12 3
v 5 12 -0
v 5 12 -1
v 5 17 4
v 5 17 3
v 5 17 -0
v 5 17 -1
v 5 19 4
v 5 19 3
v 5 19 -0
v 5 19 -1
v 5 21 4
v 5 21 3
v 5 21 -0
v 5 21 -1
v 5 22 4
v 5 22 3
v 5 22 -0
v 5 22 -1
v 5 23 4
v 5 23 3
v 5 23 -0
v 5 23 -1
v 6 13 4
v 6 13 3
v 6 13 -0
v 6 13 -1
v 6 14 4
v 6 14 -1
v 6 15 4
v 6 15 -1
v 6 17 4
v 6 17 3
v 6 17 -0
v 6 17 -1
v 6 20 3
v 6 20 -0
v 6 21 2
v 6 21 1
v 6 22 3
v 6 22 2
v 6 22 1
v 6 22 -0
v 6 23 4
v 6 23 3
v 6 23 2
v 6 23 -0
v 6 23 -1
v 6 24 4
v 6 24 3
v 6 24 2
v 6 24 -0
v 6 24 -1
v 6 25 3
v 6 25 -0
v 7 11 4
v 7 11 3
v 7 11 -0
v 7 11 -1
v 7 12 4
v 7 12 3
v 7 12 -0
v 7 12 -1
v 7 13 4
v 7 13 3
v 7 13 -0
v 7 13 -1
v 7 23 2
v 7 23 1
v 7 24 2
v 7 24 1
v 8 23 1
v 8 23 -0
v 8 24 1
v 8 24 -0
v 9 14 5
v 9 14 4
v 9 14 -1
v 9 14 -2
v 9 15 5
v 9 15 4
v 9 15 -1
v 9 15 -2
v 2 14 5
v 2 20 5
v 3 15 5
v 3 20 5
v 8 14 5
v 8 15 5
v 9 14 5
v 9 15 5
v 2 11 4
v 2 12 4
v 2 14 4
v 3 15 4
v 3 20 4
v 4 12 4
v 4 14 4
v 4 15 4
v 4 19 4
v 4 20 4
v 4 21 4
v 4 22 4
v 4 24 4
v 5 11 4
v 5 12 4
v 5 17 4
v 5 19 4
v 5 21 4
v 5 22 4
v 5 23 4
v 6 11 4
v 6 12 4
v 6 13 4
v 6 14 4
v 6 15 4
v 6 17 4
v 6 23 4
v 6 24 4
v 7 11 4
v 7 12 4
v 7 13 4
v 1 20 3
v 1 21 3
v 2 20 3
v 3 21 3
v 3 24 3
v 4 20 3
v 4 21 3
v 4 22 3
v 4 24 3
v 4 25 3
v 5 20 3
v 5 21 3
v 5 22 3
v 5 23 3
v 6 20 3
v 6 22 3
v 6 23 3
v 6 24 3
v 6 25 3
v 2 21 2
v 2 22 2
v 3 21 2
v 3 22 2
v 6 23 2
v 6 24 2
v 7 23 2
v 7 24 2
v 3 20 1
v 3 21 1
v 4 20 1
v 4 21 1
v 7 23 1
v 7 24 1
v 8 23 1
v 8 24 1
v 4 11 -0
v 4 12 -0
v 4 19 -0
v 5 11 -0
v 5 12 -0
v 5 17 -0
v 5 19 -0
v 6 11 -0
v 6 12 -0
v 6 13 -0
v 6 17 -0
v 7 11 -0
v 7 12 -0
v 7 13 -0
v 6 14 -1
v 6 15 -1
v 8 14 -1
v 8 15 -1
v 9 14 -1
v 9 15 -1
v 6 14 4
v 6 15 4
v 8 14 4
v 8 15 4
v 9 14 4
v 9 15 4
v 4 11 3
v 4 12 3
v 4 19 3
v 5 11 3
v 5 12 3
v 5 17 3
v 5 19 3
v 6 11 3
v 6 12 3
v 6 13 3
v 6 17 3
v 7 11 3
v 7 12 3
v 7 13 3
v 3 20 2
v 3 21 2
v 4 20 2
v 4 21 2
v 2 21 1
v 2 22 1
v 3 21 1
v 3 22 1
v 1 20 -0
v 1 21 -0
v 2 20 -0
v 3 21 -0
v 3 24 -0
v 4 20 -0
v 4 21 -0
v 4 22 -0
v 4 24 -0
v 4 25 -0
v 5 20 -0
v 5 21 -0
v 5 22 -0
v 5 23 -0
v 6 20 -0
v 6 22 -0
v 6 23 -0
v 6 24 -0
v 6 25 -0
v 8 23 -0
v 8 24 -0
v 2 11 -1
v 2 12 -1
v 2 14 -1
v 3 15 -1
v 3 20 -1
v 4 12 -1
v 4 14 -1
v 4 15 -1
v 4 19 -1
v 4 20 -1
v 4 21 -1
v 4 22 -1
v 4 24 -1
v 5 11 -1
v 5 12 -1
v 5 17 -1
v 5 19 -1
v 5 21 -1
v 5 22 -1
v 5 23 -1
v 6 11 -1
v 6 12 -1
v 6 13 -1
v 6 14 -1
v 6 15 -1
v 6 17 -1
v 6 23 -1
v 6 24 -1
v 7 11 -1
v 7 12 -1
v 7 13 -1
v 2 14 -2
v 2 20 -2
v 3 15 -2
v 3 20 -2
v 8 14 -2
v 8 15 -2
v 9 14 -2
v 9 15 -2
v 2 11 4
v 5 11 4
v 6 11 4
v 7 11 4
v 4 11 3
v 5 11 3
v 6 11 3
v 7 11 3
v 4 11 -0
v 5 11 -0
v 6 11 -0
v 7 11 -0
v 2 11 -1
v 5 11 -1
v 6 11 -1
v 7 11 -1
v 5 12 4
v 6 12 4
v 5 12 3
v 6 12 3
v 5 12 -0
v 6 12 -0
v 5 12 -1
v 6 12 -1
v 2 14 5
v 8 14 5
v 9 14 5
v 2 14 4
v 4 14 4
v 6 14 4
v 8 14 4
v 9 14 4
v 2 14 -1
v 4 14 -1
v 6 14 -1
v 8 14 -1
v 9 14 -1
v 2 14 -2
v 8 14 -2
v 9 14 -2
v 1 20 3
v 2 20 3
v 4 20 3
v 5 20 3
v 6 20 3
v 1 20 -0
v 2 20 -0
v 4 20 -0
v 5 20 -0
v 6 20 -0
v 4 21 4
v 5 21 4
v 4 21 3
v 5 21 3
v 3 21 2
v 4 21 2
v 3 21 1
v 4 21 1
v 4 21 -0
v 5 21 -0
v 4 21 -1
v 5 21 -1
v 5 23 4
v 6 23 4
v 5 23 3
v 6 23 3
v 6 23 2
v 7 23 2
v 7 23 1
v 8 23 1
v 5 23 -0
v 6 23 -0
v 8 23 -0
v 5 23 -1
v 6 23 -1
v 6 13 4
v 7 13 4
v 6 13 3
v 7 13 3
v 6 13 -0
v 7 13 -0
v 6 13 -1
v 7 13 -1
v 3 15 5
v 8 15 5
v 9 15 5
v 3 15 4
v 4 15 4
v 6 15 4
v 8 15 4
v 9 15 4
v 3 15 -1
v 4 15 -1
v 6 15 -1
v 8 15 -1
v 9 15 -1
v 3 15 -2
v 8 15 -2
v 9 15 -2
v 5 17 4
v 6 17 4
v 5 17 3
v 6 17 3
v 5 17 -0
v 6 17 -0
v 5 17 -1
v 6 17 -1
v 4 19 4
v 5 19 4
v 4 19 3
v 5 19 3
v 4 19 -0
v 5 19 -0
v 4 19 -1
v 5 19 -1
v 2 20 5
v 3 20 5
v 3 20 4
v 4 20 4
v 2 20 3
v 4 20 3
v 3 20 2
v 4 20 2
v 3 20 1
v 4 20 1
v 2 20 -0
v 4 20 -0
v 3 20 -1
v 4 20 -1
v 2 20 -2
v 3 20 -2
v 1 21 3
v 3 21 3
v 2 21 2
v 3 21 2
v 2 21 1
v 3 21 1
v 1 21 -0
v 3 21 -0
v 2 22 2
v 3 22 2
v 2 22 1
v 3 22 1
v 4 24 4
v 6 24 4
v 3 24 3
v 4 24 3
v 6 24 3
v 6 24 2
v 7 24 2
v 7 24 1
v 8 24 1
v 3 24 -0
v 4 24 -0
v 6 24 -0
v 8 24 -0
v 4 24 -1
v 6 24 -1
v 4 25 3
v 6 25 3
v 4 25 -0
v 6 25 -0

# faces
f 3/4/1 2/4/1 1/4/1
f 4/4/1 2/4/1 3/4/1
f 7/3/1 6/3/1 5/3/1
f 8/3/1 6/3/1 7/3/1
f 10/4/1 8/4/1 7/4/1
f 11/4/1 8/4/1 10/4/1
f 13/4/1 11/4/1 10/4/1
f 13/4/1 12/4/1 11/4/1
f 13/4/1 10/4/1 9/4/1
f 14/4/1 12/4/1 13/4/1
f 15/4/1 12/4/1 14/4/1
f 16/4/1 12/4/1 15/4/1
f 19/1/1 18/1/1 17/1/1
f 20/1/1 18/1/1 19/1/1
f 25/2/1 22/2/1 21/2/1
f 26/2/1 24/2/1 23/2/1
f 27/2/1 25/2/1 21/2/1
f 27/2/1 26/2/1 25/2/1
f 28/2/1 24/2/1 26/2/1
f 28/2/1 26/2/1 27/2/1
f 33/1/1 30/1/1 29/1/1
f 34/1/1 30/1/1 33/1/1
f 37/1/1 32/1/1 31/1/1
f 38/1/1 32/1/1 37/1/1
f 39/1/1 36/1/1 35/1/1
f 40/1/1 36/1/1 39/1/1
f 41/2/1 38/2/1 37/2/1
f 42/2/1 38/2/1 41/2/1
f 43/2/1 40/2/1 39/2/1
f 44/2/1 40/2/1 43/2/1
f 45/2/1 43/2/1 42/2/1
f 46/2/1 43/2/1 45/2/1
f 51/4/1 48/4/1 47/4/1
f 52/4/1 48/4/1 51/4/1
f 53/4/1 50/4/1 49/4/1
f 54/4/1 50/4/1 53/4/1
f 55/4/2 56/4/2 59/4/2
f 59/4/2 56/4/2 60/4/2
f 57/4/2 58/4/2 63/4/2
f 63/4/2 58/4/2 64/4/2
f 61/1/2 62/1/2 65/1/2
f 65/1/2 62/1/2 66/1/2
f 67/3/2 68/3/2 69/3/2
f 69/3/2 68/3/2 70/3/2
f 69/4/2 70/4/2 72/4/2
f 72/4/2 70/4/2 73/4/2
f 72/4/2 73/4/2 75/4/2
f 73/4/2 74/4/2 75/4/2
f 71/4/2 72/4/2 75/4/2
f 75/4/2 74/4/2 76/4/2
f 76/4/2 74/4/2 77/4/2
f 77/4/2 74/4/2 78/4/2
f 79/3/2 80/3/2 83/3/2
f 83/3/2 80/3/2 84/3/2
f 81/3/2 82/3/2 85/3/2
f 85/3/2 82/3/2 86/3/2
f 87/3/2 88/3/2 91/3/2
f 91/3/2 88/3/2 92/3/2
f 89/3/2 90/3/2 93/3/2
f 93/3/2 90/3/2 94/3/2
f 95/1/2 96/1/2 99/1/2
f 99/1/2 96/1/2 100/1/2
f 97/1/2 98/1/2 101/1/2
f 101/1/2 98/1/2 102/1/2
f 99/2/2 100/2/2 103/2/2
f 103/2/2 100/2/2 104/2/2
f 101/2/2 102/2/2 105/2/2
f 105/2/2 102/2/2 106/2/2
f 107/3/2 108/3/2 111/3/2
f 109/3/2 110/3/2 112/3/2
f 111/3/2 108/3/2 113/3/2
f 109/3/2 112/3/2 114/3/2
f 113/3/2 108/3/2 115/3/2
f 115/3/2 108/3/2 116/3/2
f 109/3/2 114/3/2 117/3/2
f 117/3/2 114/3/2 118/3/2
f 119/2/2 120/2/2 121/2/2
f 121/2/2 120/2/2 122/2/2
f 119/2/2 121/2/2 123/2/2
f 121/1/2 122/1/2 124/1/2
f 123/2/2 121/2/2 124/2/2
f 122/2/2 120/2/2 125/2/2
f 124/1/2 122/1/2 125/1/2
f 125/2/2 120/2/2 126/2/2
f 123/1/2 124/1/2 128/1/2
f 124/1/2 125/1/2 128/1/2
f 125/1/2 126/1/2 128/1/2
f 128/1/2 126/1/2 129/1/2
f 129/1/2 126/1/2 130/1/2
f 127/2/2 128/2/2 132/2/2
f 128/2/2 129/2/2 132/2/2
f 132/2/2 129/2/2 133/2/2
f 133/2/2 129/2/2 134/2/2
f 130/2/2 131/2/2 135/2/2
f 135/2/2 131/2/2 136/2/2
f 133/2/2 134/2/2 137/2/2
f 134/2/2 135/2/2 137/2/2
f 137/2/2 135/2/2 138/2/2
f 139/4/2 140/4/2 143/4/2
f 143/4/2 140/4/2 144/4/2
f 141/4/2 142/4/2 145/4/2
f 145/4/2 142/4/2 146/4/2
f 143/3/2 144/3/2 147/3/2
f 147/3/2 144/3/2 148/3/2
f 145/3/2 146/3/2 149/3/2
f 149/3/2 146/3/2 150/3/2
f 151/2/2 152/2/2 153/2/2
f 153/2/2 152/2/2 154/2/2
f 155/2/2 156/2/2 157/2/2
f 157/2/2 156/2/2 158/2/2
f 159/1/2 160/1/2 163/1/2
f 163/1/2 160/1/2 164/1/2
f 161/1/2 162/1/2 165/1/2
f 165/1/2 162/1/2 166/1/2
f 169/4/3 168/4/3 167/4/3
f 170/4/3 168/4/3 169/4/3
f 171/4/3 169/4/3 167/4/3
f 172/4/3 169/4/3 171/4/3
f 173/1/3 172/1/3 171/1/3
f 174/1/3 172/1/3 173/1/3
f 180/3/3 176/3/3 175/3/3
f 180/4/3 177/4/3 176/4/3
f 181/4/3 177/4/3 180/4/3
f 182/4/3 179/4/3 178/4/3
f 183/4/3 179/4/3 182/4/3
f 184/4/3 179/4/3 183/4/3
f 188/3/3 181/3/3 180/3/3
f 188/3/3 180/3/3 175/3/3
f 189/3/3 181/3/3 188/3/3
f 190/3/3 183/3/3 182/3/3
f 191/3/3 183/3/3 190/3/3
f 192/1/3 186/1/3 185/1/3
f 193/2/3 187/2/3 186/2/3
f 193/1/3 186/1/3 192/1/3
f 194/2/3 187/2/3 193/2/3
f 196/3/3 181/3/3 189/3/3
f 197/3/3 181/3/3 196/3/3
f 198/3/3 181/3/3 197/3/3
f 199/3/3 190/3/3 182/3/3
f 200/3/3 190/3/3 199/3/3
f 201/2/3 187/2/3 194/2/3
f 202/2/3 187/2/3 201/2/3
f 203/4/3 196/4/3 195/4/3
f 204/3/3 197/3/3 196/3/3
f 204/4/3 196/4/3 203/4/3
f 205/3/3 197/3/3 204/3/3
f 208/4/3 207/4/3 206/4/3
f 209/4/3 207/4/3 208/4/3
f 211/4/3 209/4/3 208/4/3
f 212/2/3 210/2/3 209/2/3
f 212/4/3 209/4/3 211/4/3
f 213/2/3 210/2/3 212/2/3
f 214/2/3 210/2/3 213/2/3
f 216/1/3 212/1/3 211/1/3
f 217/1/3 212/1/3 216/1/3
f 220/2/3 217/2/3 216/2/3
f 220/2/3 218/2/3 217/2/3
f 221/1/3 219/1/3 218/1/3
f 221/2/3 218/2/3 220/2/3
f 222/1/3 219/1/3 221/1/3
f 223/2/3 215/2/3 214/2/3
f 224/2/3 215/2/3 223/2/3
f 227/1/3 226/1/3 225/1/3
f 228/1/3 226/1/3 227/1/3
f 231/2/3 230/2/3 229/2/3
f 232/2/3 230/2/3 231/2/3
f 235/4/3 234/4/3 233/4/3
f 236/4/3 234/4/3 235/4/3
f 239/2/3 238/2/3 237/2/3
f 240/2/3 238/2/3 239/2/3
f 244/3/3 242/3/3 241/3/3
f 244/3/3 243/3/3 242/3/3
f 245/3/3 243/3/3 244/3/3
f 246/3/3 243/3/3 245/3/3
f 247/3/3 243/3/3 246/3/3
f 249/3/3 246/3/3 245/3/3
f 250/3/3 246/3/3 249/3/3
f 251/3/3 246/3/3 250/3/3
f 252/4/3 249/4/3 248/4/3
f 253/3/3 250/3/3 249/3/3
f 253/4/3 249/4/3 252/4/3
f 254/3/3 250/3/3 253/3/3
f 257/4/3 256/4/3 255/4/3
f 258/4/3 256/4/3 257/4/3
f 259/1/3 258/1/3 257/1/3
f 260/1/3 258/1/3 259/1/3
f 261/4/4 262/4/4 263/4/4
f 263/4/4 262/4/4 264/4/4
f 263/1/4 264/1/4 265/1/4
f 265/1/4 264/1/4 266/1/4
f 267/3/4 268/3/4 270/3/4
f 268/3/4 269/3/4 270/3/4
f 270/3/4 269/3/4 271/3/4
f 271/3/4 269/3/4 272/3/4
f 272/3/4 269/3/4 273/3/4
f 271/3/4 272/3/4 275/3/4
f 275/3/4 272/3/4 276/3/4
f 276/3/4 272/3/4 277/3/4
f 274/4/4 275/4/4 278/4/4
f 275/3/4 276/3/4 279/3/4
f 278/4/4 275/4/4 279/4/4
f 279/3/4 276/3/4 280/3/4
f 281/4/4 282/4/4 283/4/4
f 283/4/4 282/4/4 284/4/4
f 285/1/4 286/1/4 287/1/4
f 287/1/4 286/1/4 288/1/4
f 289/4/4 290/4/4 291/4/4
f 291/4/4 290/4/4 292/4/4
f 291/4/4 292/4/4 294/4/4
f 292/2/4 293/2/4 295/2/4
f 294/4/4 292/4/4 295/4/4
f 295/2/4 293/2/4 296/2/4
f 296/2/4 293/2/4 297/2/4
f 294/1/4 295/1/4 299/1/4
f 299/1/4 295/1/4 300/1/4
f 299/2/4 300/2/4 303/2/4
f 300/2/4 301/2/4 303/2/4
f 301/1/4 302/1/4 304/1/4
f 303/2/4 301/2/4 304/2/4
f 304/1/4 302/1/4 305/1/4
f 297/2/4 298/2/4 306/2/4
f 306/2/4 298/2/4 307/2/4
f 305/2/4 306/2/4 308/2/4
f 308/2/4 306/2/4 309/2/4
f 310/3/4 311/3/4 315/3/4
f 311/4/4 312/4/4 315/4/4
f 315/4/4 312/4/4 316/4/4
f 313/4/4 314/4/4 317/4/4
f 317/4/4 314/4/4 318/4/4
f 318/4/4 314/4/4 319/4/4
f 315/3/4 316/3/4 323/3/4
f 310/3/4 315/3/4 323/3/4
f 323/3/4 316/3/4 324/3/4
f 317/3/4 318/3/4 325/3/4
f 325/3/4 318/3/4 326/3/4
f 320/1/4 321/1/4 327/1/4
f 321/2/4 322/2/4 328/2/4
f 327/1/4 321/1/4 328/1/4
f 328/2/4 322/2/4 329/2/4
f 324/3/4 316/3/4 331/3/4
f 331/3/4 316/3/4 332/3/4
f 332/3/4 316/3/4 333/3/4
f 317/3/4 325/3/4 334/3/4
f 334/3/4 325/3/4 335/3/4
f 329/2/4 322/2/4 336/2/4
f 336/2/4 322/2/4 337/2/4
f 330/4/4 331/4/4 338/4/4
f 331/3/4 332/3/4 339/3/4
f 338/4/4 331/4/4 339/4/4
f 339/3/4 332/3/4 340/3/4
f 341/4/4 342/4/4 343/4/4
f 343/4/4 342/4/4 344/4/4
f 341/4/4 343/4/4 345/4/4
f 345/4/4 343/4/4 346/4/4
f 345/1/4 346/1/4 347/1/4
f 347/1/4 346/1/4 348/1/4
f 353/3/5 350/3/5 349/3/5
f 354/3/5 350/3/5 353/3/5
f 355/4/5 352/4/5 351/4/5
f 356/4/5 352/4/5 355/4/5
f 357/3/5 353/3/5 349/3/5
f 361/3/5 357/3/5 349/3/5
f 361/3/5 358/3/5 357/3/5
f 362/3/5 358/3/5 361/3/5
f 363/4/5 360/4/5 359/4/5
f 364/4/5 360/4/5 363/4/5
f 367/3/5 366/3/5 365/3/5
f 368/3/5 366/3/5 367/3/5
f 371/3/5 370/3/5 369/3/5
f 372/3/5 370/3/5 371/3/5
f 376/4/5 374/4/5 373/4/5
f 377/4/5 374/4/5 376/4/5
f 378/4/5 374/4/5 377/4/5
f 379/1/5 375/1/5 374/1/5
f 379/4/5 374/4/5 378/4/5
f 380/1/5 375/1/5 379/1/5
f 386/4/5 382/4/5 381/4/5
f 386/4/5 383/4/5 382/4/5
f 386/4/5 384/4/5 383/4/5
f 387/1/5 385/1/5 384/1/5
f 387/4/5 384/4/5 386/4/5
f 388/1/5 385/1/5 387/1/5
f 394/4/5 390/4/5 389/4/5
f 395/4/5 390/4/5 394/4/5
f 396/1/5 392/1/5 391/1/5
f 397/2/5 393/2/5 392/2/5
f 397/1/5 392/1/5 396/1/5
f 398/2/5 393/2/5 397/2/5
f 401/1/5 400/1/5 399/1/5
f 402/1/5 400/1/5 401/1/5
f 405/2/5 404/2/5 403/2/5
f 406/2/5 404/2/5 405/2/5
f 409/1/5 408/1/5 407/1/5
f 410/1/5 408/1/5 409/1/5
f 413/2/5 412/2/5 411/2/5
f 414/2/5 412/2/5 413/2/5
f 417/2/5 416/2/5 415/2/5
f 420/2/5 417/2/5 415/2/5
f 420/2/5 418/2/5 417/2/5
f 421/2/5 418/2/5 420/2/5
f 422/2/5 420/2/5 419/2/5
f 423/2/5 420/2/5 422/2/5
f 424/3/6 425/3/6 426/3/6
f 426/3/6 425/3/6 427/3/6
f 428/3/6 429/3/6 430/3/6
f 430/3/6 429/3/6 431/3/6
f 432/4/6 433/4/6 435/4/6
f 435/4/6 433/4/6 436/4/6
f 436/4/6 433/4/6 437/4/6
f 433/1/6 434/1/6 438/1/6
f 437/4/6 433/4/6 438/4/6
f 438/1/6 434/1/6 439/1/6
f 440/4/6 441/4/6 445/4/6
f 441/4/6 442/4/6 445/4/6
f 442/4/6 443/4/6 445/4/6
f 443/1/6 444/1/6 446/1/6
f 445/4/6 443/4/6 446/4/6
f 446/1/6 444/1/6 447/1/6
f 448/3/6 449/3/6 450/3/6
f 450/3/6 449/3/6 451/3/6
f 452/3/6 453/3/6 454/3/6
f 454/3/6 453/3/6 455/3/6
f 456/3/6 457/3/6 458/3/6
f 458/3/6 457/3/6 459/3/6
f 460/3/6 461/3/6 462/3/6
f 462/3/6 461/3/6 463/3/6
f 464/4/6 465/4/6 466/4/6
f 464/4/6 466/4/6 468/4/6
f 466/4/6 467/4/6 468/4/6
f 468/4/6 467/4/6 469/4/6
f 470/4/6 471/4/6 472/4/6
f 472/4/6 471/4/6 473/4/6
f 474/4/6 475/4/6 476/4/6
f 476/4/6 475/4/6 477/4/6
f 474/4/6 476/4/6 478/4/6
f 478/4/6 476/4/6 479/4/6
f 480/4/6 481/4/6 482/4/6
f 482/4/6 481/4/6 483/4/6
f 480/4/6 482/4/6 484/4/6
f 480/4/6 484/4/6 486/4/6
f 484/4/6 485/4/6 486/4/6
f 486/4/6 485/4/6 487/4/6
f 488/1/6 489/1/6 490/1/6
f 490/1/6 489/1/6 491/1/6
f 492/2/6 493/2/6 495/2/6
f 495/2/6 493/2/6 496/2/6
f 497/2/6 498/2/6 499/2/6
f 494/2/6 495/2/6 501/2/6
f 501/2/6 495/2/6 502/2/6
f 499/2/6 500/2/6 503/2/6
f 497/2/6 499/2/6 503/2/6
f 503/2/6 500/2/6 504/2/6
f 502/2/6 503/2/6 505/2/6
f 505/2/6 503/2/6 506/2/6
f 507/2/6 508/2/6 509/2/6
f 509/2/6 508/2/6 510/2/6
