# MagicaVoxel @ Ephtracy

# group
g fetal-char-stand

# material
mtllib fetal-char-stand.mtl
usemtl palette

# normals
vn -1 0 0
vn 1 0 0
vn 0 0 1
vn 0 0 -1
vn 0 -1 0
vn 0 1 0

# texcoords
vt 0.248047 0.5
vt 0.279297 0.5
vt 0.744141 0.5
vt 0.994141 0.5

# verts
v 1 20 3
v 1 20 -0
v 1 21 3
v 1 21 -0
v 1 23 3
v 1 23 -0
v 1 26 3
v 1 26 -0
v 2 0 4
v 2 0 3
v 2 0 -0
v 2 0 -1
v 2 1 4
v 2 1 3
v 2 1 -0
v 2 1 -1
v 2 8 5
v 2 8 4
v 2 8 -1
v 2 8 -2
v 2 9 5
v 2 9 4
v 2 9 -1
v 2 9 -2
v 2 10 3
v 2 10 -0
v 2 12 4
v 2 12 -1
v 2 20 5
v 2 20 3
v 2 20 -0
v 2 20 -2
v 2 21 2
v 2 21 1
v 2 22 3
v 2 22 2
v 2 22 1
v 2 22 -0
v 2 23 4
v 2 23 3
v 2 23 -0
v 2 23 -1
v 2 24 4
v 2 24 3
v 2 24 -0
v 2 24 -1
v 2 26 4
v 2 26 3
v 2 26 -0
v 2 26 -1
v 2 27 3
v 2 27 -0
v 3 0 4
v 3 0 3
v 3 0 -0
v 3 0 -1
v 3 1 4
v 3 1 3
v 3 1 -0
v 3 1 -1
v 3 8 5
v 3 8 4
v 3 8 -1
v 3 8 -2
v 3 9 5
v 3 9 4
v 3 9 -1
v 3 9 -2
v 3 10 3
v 3 10 -0
v 3 12 4
v 3 12 -1
v 3 20 5
v 3 20 4
v 3 20 2
v 3 20 1
v 3 20 -1
v 3 20 -2
v 3 21 2
v 3 21 1
v 3 22 2
v 3 22 1
v 3 23 4
v 3 23 3
v 3 23 -0
v 3 23 -1
v 3 24 4
v 3 24 3
v 3 24 -0
v 3 24 -1
v 3 25 4
v 3 25 3
v 3 25 -0
v 3 25 -1
v 4 12 4
v 4 12 -1
v 4 20 4
v 4 20 3
v 4 20 2
v 4 20 1
v 4 20 -0
v 4 20 -1
v 4 21 3
v 4 21 2
v 4 21 1
v 4 21 -0
v 4 22 3
v 4 22 -0
v 4 23 2
v 4 23 1
v 4 24 3
v 4 24 2
v 4 24 1
v 4 24 -0
v 4 25 4
v 4 25 3
v 4 25 2
v 4 25 -0
v 4 25 -1
v 4 26 4
v 4 26 3
v 4 26 2
v 4 26 -0
v 4 26 -1
v 4 27 3
v 4 27 -0
v 5 25 2
v 5 25 1
v 5 26 2
v 5 26 1
v 6 25 1
v 6 25 -0
v 6 26 1
v 6 26 -0
v 2 8 5
v 2 9 5
v 2 20 5
v 3 8 5
v 3 9 5
v 3 20 5
v 2 0 4
v 2 1 4
v 2 8 4
v 2 23 4
v 2 24 4
v 2 26 4
v 3 0 4
v 3 1 4
v 3 8 4
v 3 12 4
v 3 20 4
v 3 23 4
v 3 24 4
v 3 25 4
v 4 12 4
v 4 20 4
v 4 25 4
v 4 26 4
v 1 20 3
v 1 21 3
v 1 23 3
v 1 26 3
v 2 20 3
v 2 22 3
v 2 23 3
v 2 24 3
v 2 26 3
v 2 27 3
v 3 22 3
v 3 23 3
v 3 24 3
v 3 25 3
v 4 20 3
v 4 21 3
v 4 22 3
v 4 24 3
v 4 25 3
v 4 26 3
v 4 27 3
v 2 21 2
v 2 22 2
v 3 21 2
v 3 22 2
v 4 25 2
v 4 26 2
v 5 25 2
v 5 26 2
v 3 20 1
v 3 21 1
v 4 20 1
v 4 21 1
v 5 25 1
v 5 26 1
v 6 25 1
v 6 26 1
v 2 0 -0
v 2 1 -0
v 2 10 -0
v 3 0 -0
v 3 1 -0
v 3 10 -0
v 2 0 3
v 2 1 3
v 2 10 3
v 3 0 3
v 3 1 3
v 3 10 3
v 3 20 2
v 3 21 2
v 4 20 2
v 4 21 2
v 2 21 1
v 2 22 1
v 3 21 1
v 3 22 1
v 1 20 -0
v 1 21 -0
v 1 23 -0
v 1 26 -0
v 2 20 -0
v 2 22 -0
v 2 23 -0
v 2 24 -0
v 2 26 -0
v 2 27 -0
v 3 22 -0
v 3 23 -0
v 3 24 -0
v 3 25 -0
v 4 20 -0
v 4 21 -0
v 4 22 -0
v 4 24 -0
v 4 25 -0
v 4 26 -0
v 4 27 -0
v 6 25 -0
v 6 26 -0
v 2 0 -1
v 2 1 -1
v 2 8 -1
v 2 23 -1
v 2 24 -1
v 2 26 -1
v 3 0 -1
v 3 1 -1
v 3 8 -1
v 3 12 -1
v 3 20 -1
v 3 23 -1
v 3 24 -1
v 3 25 -1
v 4 12 -1
v 4 20 -1
v 4 25 -1
v 4 26 -1
v 2 8 -2
v 2 9 -2
v 2 20 -2
v 3 8 -2
v 3 9 -2
v 3 20 -2
v 2 0 4
v 3 0 4
v 2 0 3
v 3 0 3
v 2 0 -0
v 3 0 -0
v 2 0 -1
v 3 0 -1
v 2 8 5
v 3 8 5
v 2 8 4
v 3 8 4
v 2 8 -1
v 3 8 -1
v 2 8 -2
v 3 8 -2
v 2 10 3
v 3 10 3
v 2 10 -0
v 3 10 -0
v 3 12 4
v 4 12 4
v 3 12 -1
v 4 12 -1
v 1 20 3
v 2 20 3
v 1 20 -0
v 2 20 -0
v 2 22 3
v 3 22 3
v 4 22 3
v 2 22 2
v 3 22 2
v 2 22 1
v 3 22 1
v 2 22 -0
v 3 22 -0
v 4 22 -0
v 2 23 4
v 3 23 4
v 1 23 3
v 2 23 3
v 3 23 3
v 1 23 -0
v 2 23 -0
v 3 23 -0
v 2 23 -1
v 3 23 -1
v 3 25 4
v 4 25 4
v 3 25 3
v 4 25 3
v 4 25 2
v 5 25 2
v 5 25 1
v 6 25 1
v 3 25 -0
v 4 25 -0
v 6 25 -0
v 3 25 -1
v 4 25 -1
v 2 20 5
v 3 20 5
v 3 20 4
v 4 20 4
v 2 20 3
v 4 20 3
v 3 20 2
v 4 20 2
v 3 20 1
v 4 20 1
v 2 20 -0
v 4 20 -0
v 3 20 -1
v 4 20 -1
v 2 20 -2
v 3 20 -2
v 1 21 3
v 4 21 3
v 2 21 2
v 3 21 2
v 4 21 2
v 2 21 1
v 3 21 1
v 4 21 1
v 1 21 -0
v 4 21 -0
v 2 26 4
v 4 26 4
v 1 26 3
v 2 26 3
v 4 26 3
v 4 26 2
v 5 26 2
v 5 26 1
v 6 26 1
v 1 26 -0
v 2 26 -0
v 4 26 -0
v 6 26 -0
v 2 26 -1
v 4 26 -1
v 2 27 3
v 4 27 3
v 2 27 -0
v 4 27 -0

# faces
f 3/4/1 2/4/1 1/4/1
f 4/4/1 2/4/1 3/4/1
f 7/2/1 6/2/1 5/2/1
f 8/2/1 6/2/1 7/2/1
f 13/4/1 10/4/1 9/4/1
f 14/4/1 10/4/1 13/4/1
f 15/4/1 12/4/1 11/4/1
f 16/4/1 12/4/1 15/4/1
f 18/3/1 14/3/1 13/3/1
f 19/3/1 16/3/1 15/3/1
f 21/1/1 18/1/1 17/1/1
f 22/3/1 14/3/1 18/3/1
f 22/1/1 18/1/1 21/1/1
f 23/3/1 19/3/1 15/3/1
f 23/1/1 20/1/1 19/1/1
f 24/1/1 20/1/1 23/1/1
f 25/3/1 14/3/1 22/3/1
f 26/3/1 23/3/1 15/3/1
f 27/4/1 22/4/1 21/4/1
f 27/3/1 26/3/1 25/3/1
f 27/3/1 25/3/1 22/3/1
f 28/3/1 23/3/1 26/3/1
f 28/3/1 26/3/1 27/3/1
f 28/4/1 24/4/1 23/4/1
f 29/4/1 27/4/1 21/4/1
f 29/4/1 28/4/1 27/4/1
f 30/4/1 28/4/1 29/4/1
f 31/4/1 28/4/1 30/4/1
f 32/4/1 24/4/1 28/4/1
f 32/4/1 28/4/1 31/4/1
f 36/1/1 34/1/1 33/1/1
f 37/1/1 34/1/1 36/1/1
f 40/1/1 36/1/1 35/1/1
f 40/1/1 38/1/1 37/1/1
f 40/1/1 37/1/1 36/1/1
f 41/1/1 38/1/1 40/1/1
f 43/1/1 40/1/1 39/1/1
f 44/1/1 40/1/1 43/1/1
f 45/1/1 42/1/1 41/1/1
f 46/1/1 42/1/1 45/1/1
f 47/2/1 44/2/1 43/2/1
f 48/2/1 44/2/1 47/2/1
f 49/2/1 46/2/1 45/2/1
f 50/2/1 46/2/1 49/2/1
f 51/2/1 49/2/1 48/2/1
f 52/2/1 49/2/1 51/2/1
f 53/4/2 54/4/2 57/4/2
f 57/4/2 54/4/2 58/4/2
f 55/4/2 56/4/2 59/4/2
f 59/4/2 56/4/2 60/4/2
f 57/3/2 58/3/2 62/3/2
f 59/3/2 60/3/2 63/3/2
f 61/1/2 62/1/2 65/1/2
f 62/3/2 58/3/2 66/3/2
f 65/1/2 62/1/2 66/1/2
f 59/3/2 63/3/2 67/3/2
f 63/1/2 64/1/2 67/1/2
f 67/1/2 64/1/2 68/1/2
f 66/3/2 58/3/2 69/3/2
f 59/3/2 67/3/2 70/3/2
f 65/4/2 66/4/2 71/4/2
f 69/3/2 70/3/2 71/3/2
f 66/3/2 69/3/2 71/3/2
f 70/3/2 67/3/2 72/3/2
f 71/3/2 70/3/2 72/3/2
f 67/4/2 68/4/2 72/4/2
f 65/4/2 71/4/2 73/4/2
f 73/4/2 71/4/2 74/4/2
f 72/4/2 68/4/2 77/4/2
f 77/4/2 68/4/2 78/4/2
f 75/1/2 76/1/2 79/1/2
f 79/1/2 76/1/2 80/1/2
f 79/1/2 80/1/2 81/1/2
f 81/1/2 80/1/2 82/1/2
f 83/1/2 84/1/2 87/1/2
f 87/1/2 84/1/2 88/1/2
f 85/1/2 86/1/2 89/1/2
f 89/1/2 86/1/2 90/1/2
f 87/2/2 88/2/2 91/2/2
f 91/2/2 88/2/2 92/2/2
f 89/2/2 90/2/2 93/2/2
f 93/2/2 90/2/2 94/2/2
f 95/4/2 96/4/2 97/4/2
f 97/4/2 96/4/2 98/4/2
f 98/4/2 96/4/2 99/4/2
f 99/4/2 96/4/2 100/4/2
f 100/4/2 96/4/2 101/4/2
f 101/4/2 96/4/2 102/4/2
f 98/4/2 99/4/2 103/4/2
f 103/4/2 99/4/2 104/4/2
f 100/4/2 101/4/2 105/4/2
f 105/4/2 101/4/2 106/4/2
f 107/2/2 108/2/2 109/2/2
f 109/2/2 108/2/2 110/2/2
f 107/2/2 109/2/2 111/2/2
f 109/1/2 110/1/2 112/1/2
f 111/2/2 109/2/2 112/2/2
f 110/2/2 108/2/2 113/2/2
f 112/1/2 110/1/2 113/1/2
f 113/2/2 108/2/2 114/2/2
f 111/1/2 112/1/2 116/1/2
f 112/1/2 113/1/2 116/1/2
f 113/1/2 114/1/2 116/1/2
f 116/1/2 114/1/2 117/1/2
f 117/1/2 114/1/2 118/1/2
f 116/2/2 117/2/2 120/2/2
f 115/2/2 116/2/2 120/2/2
f 120/2/2 117/2/2 121/2/2
f 121/2/2 117/2/2 122/2/2
f 118/2/2 119/2/2 123/2/2
f 123/2/2 119/2/2 124/2/2
f 121/2/2 122/2/2 125/2/2
f 122/2/2 123/2/2 125/2/2
f 125/2/2 123/2/2 126/2/2
f 127/2/2 128/2/2 129/2/2
f 129/2/2 128/2/2 130/2/2
f 131/2/2 132/2/2 133/2/2
f 133/2/2 132/2/2 134/2/2
f 138/1/3 136/1/3 135/1/3
f 139/4/3 137/4/3 136/4/3
f 139/1/3 136/1/3 138/1/3
f 140/4/3 137/4/3 139/4/3
f 147/4/3 142/4/3 141/4/3
f 148/3/3 143/3/3 142/3/3
f 148/4/3 142/4/3 147/4/3
f 149/3/3 143/3/3 148/3/3
f 152/1/3 145/1/3 144/1/3
f 153/2/3 146/2/3 145/2/3
f 153/1/3 145/1/3 152/1/3
f 154/2/3 146/2/3 153/2/3
f 155/4/3 151/4/3 150/4/3
f 156/4/3 151/4/3 155/4/3
f 157/2/3 146/2/3 154/2/3
f 158/2/3 146/2/3 157/2/3
f 163/4/3 160/4/3 159/4/3
f 165/2/3 162/2/3 161/2/3
f 166/2/3 162/2/3 165/2/3
f 167/2/3 162/2/3 166/2/3
f 169/1/3 165/1/3 164/1/3
f 170/1/3 165/1/3 169/1/3
f 173/4/3 160/4/3 163/4/3
f 174/4/3 160/4/3 173/4/3
f 175/2/3 170/2/3 169/2/3
f 175/2/3 171/2/3 170/2/3
f 176/1/3 172/1/3 171/1/3
f 176/2/3 171/2/3 175/2/3
f 177/1/3 172/1/3 176/1/3
f 178/2/3 168/2/3 167/2/3
f 179/2/3 168/2/3 178/2/3
f 182/1/3 181/1/3 180/1/3
f 183/1/3 181/1/3 182/1/3
f 186/2/3 185/2/3 184/2/3
f 187/2/3 185/2/3 186/2/3
f 190/4/3 189/4/3 188/4/3
f 191/4/3 189/4/3 190/4/3
f 194/2/3 193/2/3 192/2/3
f 195/2/3 193/2/3 194/2/3
f 199/4/3 197/4/3 196/4/3
f 200/3/3 198/3/3 197/3/3
f 200/4/3 197/4/3 199/4/3
f 201/3/3 198/3/3 200/3/3
f 202/4/4 203/4/4 205/4/4
f 203/3/4 204/3/4 206/3/4
f 205/4/4 203/4/4 206/4/4
f 206/3/4 204/3/4 207/3/4
f 208/4/4 209/4/4 210/4/4
f 210/4/4 209/4/4 211/4/4
f 212/1/4 213/1/4 214/1/4
f 214/1/4 213/1/4 215/1/4
f 216/4/4 217/4/4 220/4/4
f 218/2/4 219/2/4 222/2/4
f 222/2/4 219/2/4 223/2/4
f 223/2/4 219/2/4 224/2/4
f 221/1/4 222/1/4 226/1/4
f 226/1/4 222/1/4 227/1/4
f 220/4/4 217/4/4 230/4/4
f 230/4/4 217/4/4 231/4/4
f 226/2/4 227/2/4 232/2/4
f 227/2/4 228/2/4 232/2/4
f 228/1/4 229/1/4 233/1/4
f 232/2/4 228/2/4 233/2/4
f 233/1/4 229/1/4 234/1/4
f 224/2/4 225/2/4 235/2/4
f 235/2/4 225/2/4 236/2/4
f 234/2/4 235/2/4 237/2/4
f 237/2/4 235/2/4 238/2/4
f 239/4/4 240/4/4 245/4/4
f 240/3/4 241/3/4 246/3/4
f 245/4/4 240/4/4 246/4/4
f 246/3/4 241/3/4 247/3/4
f 242/1/4 243/1/4 250/1/4
f 243/2/4 244/2/4 251/2/4
f 250/1/4 243/1/4 251/1/4
f 251/2/4 244/2/4 252/2/4
f 248/4/4 249/4/4 253/4/4
f 253/4/4 249/4/4 254/4/4
f 252/2/4 244/2/4 255/2/4
f 255/2/4 244/2/4 256/2/4
f 257/1/4 258/1/4 260/1/4
f 258/4/4 259/4/4 261/4/4
f 260/1/4 258/1/4 261/1/4
f 261/4/4 259/4/4 262/4/4
f 265/4/5 264/4/5 263/4/5
f 266/4/5 264/4/5 265/4/5
f 269/4/5 268/4/5 267/4/5
f 270/4/5 268/4/5 269/4/5
f 273/1/5 272/1/5 271/1/5
f 274/1/5 272/1/5 273/1/5
f 277/1/5 276/1/5 275/1/5
f 278/1/5 276/1/5 277/1/5
f 281/3/5 280/3/5 279/3/5
f 282/3/5 280/3/5 281/3/5
f 285/4/5 284/4/5 283/4/5
f 286/4/5 284/4/5 285/4/5
f 289/4/5 288/4/5 287/4/5
f 290/4/5 288/4/5 289/4/5
f 294/1/5 292/1/5 291/1/5
f 295/2/5 293/2/5 292/2/5
f 295/1/5 292/1/5 294/1/5
f 297/2/5 293/2/5 295/2/5
f 298/1/5 297/1/5 296/1/5
f 299/2/5 293/2/5 297/2/5
f 299/1/5 297/1/5 298/1/5
f 300/2/5 293/2/5 299/2/5
f 304/1/5 302/1/5 301/1/5
f 305/1/5 302/1/5 304/1/5
f 306/2/5 304/2/5 303/2/5
f 307/2/5 304/2/5 306/2/5
f 309/1/5 308/1/5 307/1/5
f 310/1/5 308/1/5 309/1/5
f 313/2/5 312/2/5 311/2/5
f 314/2/5 312/2/5 313/2/5
f 317/2/5 316/2/5 315/2/5
f 320/2/5 317/2/5 315/2/5
f 320/2/5 318/2/5 317/2/5
f 321/2/5 318/2/5 320/2/5
f 322/2/5 320/2/5 319/2/5
f 323/2/5 320/2/5 322/2/5
f 324/4/6 325/4/6 326/4/6
f 324/4/6 326/4/6 328/4/6
f 326/4/6 327/4/6 328/4/6
f 328/4/6 327/4/6 329/4/6
f 330/4/6 331/4/6 332/4/6
f 332/4/6 331/4/6 333/4/6
f 334/4/6 335/4/6 336/4/6
f 336/4/6 335/4/6 337/4/6
f 334/4/6 336/4/6 338/4/6
f 338/4/6 336/4/6 339/4/6
f 340/4/6 341/4/6 342/4/6
f 342/4/6 341/4/6 343/4/6
f 343/4/6 341/4/6 344/4/6
f 340/4/6 342/4/6 345/4/6
f 340/4/6 345/4/6 348/4/6
f 346/4/6 347/4/6 348/4/6
f 345/4/6 346/4/6 348/4/6
f 348/4/6 347/4/6 349/4/6
f 350/2/6 351/2/6 353/2/6
f 353/2/6 351/2/6 354/2/6
f 355/2/6 356/2/6 357/2/6
f 352/2/6 353/2/6 359/2/6
f 359/2/6 353/2/6 360/2/6
f 357/2/6 358/2/6 361/2/6
f 355/2/6 357/2/6 361/2/6
f 361/2/6 358/2/6 362/2/6
f 360/2/6 361/2/6 363/2/6
f 363/2/6 361/2/6 364/2/6
f 365/2/6 366/2/6 367/2/6
f 367/2/6 366/2/6 368/2/6
